<svg width="101" height="77" aria-hidden="true" fill="none" xmlns="http://www.w3.org/2000/svg"><path d="M97.27 18.1s-.9-7-3.803-10.1c-3.603-4-7.707-4.1-9.509-4.3-13.313-1-33.332-1-33.332-1h-.1s-20.019 0-33.332 1c-1.901.2-5.905.3-9.509 4.3-2.802 3.1-3.803 10.1-3.803 10.1s-.901 8.2-.901 16.4v7.7c0 8.2.9 16.4.9 16.4s.902 7 3.804 10.1c3.604 4 8.408 3.9 10.51 4.3 7.608.8 32.431 1 32.431 1s20.02 0 33.332-1c1.902-.2 5.906-.3 9.509-4.3 2.803-3.1 3.804-10.1 3.804-10.1s.9-8.2.9-16.4v-7.7c0-8.2-.9-16.4-.9-16.4z" fill="#63D1BB"/><path d="M50.526 76.8c-1 0-25.024-.3-32.63-1h-.201c-.3-.1-.7-.1-1.101-.2-2.503-.3-7.207-.9-10.81-5C2.38 67 1.379 59.8 1.279 59c0-.3-1-8.5-1-16.7v-7.7c0-8.3.9-16.4.9-16.7v-.1c.1-.8 1.201-7.9 4.504-11.6 4.004-4.4 8.509-4.9 10.71-5.1.2 0 .401 0 .501-.1h.1c13.313-1 33.332-1 33.532-1h.1c.2 0 20.22 0 33.532 1h.1c.2 0 .3 0 .5.1 2.203.2 6.707.7 10.711 5.1 3.403 3.6 4.404 10.8 4.504 11.6 0 .3 1.001 8.5 1.001 16.8v7.7c0 8.3-.901 16.4-1 16.7v.1c-.1.8-1.202 8-4.505 11.6-4.004 4.4-8.508 4.9-10.71 5.1-.2 0-.4 0-.5.1h-.1c-13.313.9-33.433.9-33.633.9zm-31.93-6.4c7.507.7 31.23 1 32.03 1 .701 0 20.12 0 33.032-1 .2 0 .4 0 .6-.1 1.802-.2 4.605-.5 7.207-3.3 1.802-2 2.903-6.9 3.103-8.6.1-.5.901-8.4.901-16.1v-7.7c0-7.8-.9-15.6-1.001-16.1-.3-2.4-1.401-6.8-3.103-8.5-2.602-2.9-5.405-3.1-7.207-3.3-.2 0-.4 0-.6-.1-13.113-1-32.832-1-33.032-1h-.1c-.2 0-20.019 0-33.031 1-.2 0-.4 0-.6.1-1.803.2-4.605.5-7.208 3.3-1.802 2-2.903 6.9-3.103 8.6-.1.6-.9 8.4-.9 16.1v7.7c0 7.7.9 15.6.9 16.1.3 2.4 1.402 6.8 3.103 8.5 2.302 2.6 5.305 3 7.507 3.3.6-.1 1.001 0 1.502.1z" fill="#fff"/><path d="M38.615 20.5v35.7l29.828-17.8-29.828-17.9z" fill="#fff"/></svg>