<?xml version="1.0" encoding="UTF-8"?><!DOCTYPE svg PUBLIC "-//W3C//DTD SVG 1.1//EN" "http://www.w3.org/Graphics/SVG/1.1/DTD/svg11.dtd"><svg xmlns="http://www.w3.org/2000/svg" xmlns:xlink="http://www.w3.org/1999/xlink"><symbol id="burger-sprite">
<symbol id="menu" fill="#2d9bb8" width="20" height="14" viewBox="0 0 20 14">
  <path d="M20 0H0V2H20V0Z" fill="#231F20"/>
<path d="M20 6H0V8H20V6Z" fill="#231F20"/>
<path d="M20 12H0V14H20V12Z" fill="#231F20"/>
</symbol>
<symbol id="close" fill="#2d9bb8" width="21" height="21" viewBox="0 0 21 20">
  <path d="M21 1.36585L19.5659 0L10.5512 8.58537L1.43415 0L0 1.36585L9.01463 10.0488L0 18.6341L1.43415 20L10.5512 11.4146L19.5659 20L21 18.6341L11.9854 10.0488L21 1.36585Z" fill="black"/>
</symbol>
</symbol><symbol id="cart"><path opacity=".2" d="M20.19 6.86h-3.55L13.19.38c-.2-.38-.61-.48-1.02-.28-.4.19-.5.57-.3.95l3.14 5.8H5.78l3.15-5.8c.2-.38 0-.76-.3-.95A.82.82 0 007.6.38L4.16 6.86H.8c-.4 0-.81.28-.81.76 0 .38.3.76.81.76h.2l.92 2.86c-.2.1-.3.28-.3.57 0 .38.3.67.7.67L4.06 18h12.88l1.73-5.52c.4 0 .7-.29.7-.67 0-.2-.1-.48-.3-.57L20 8.38h.2c.4 0 .81-.28.81-.76s-.4-.76-.81-.76zm-4.57 9.62H5.07l-1.21-4.1h13.08l-1.32 4.1zm1.63-5.53H3.35L2.54 8.3h15.52l-.81 2.66z" fill="#000"/></symbol><symbol id="check" viewBox="0 0 24 17">
<path d="M23.963 1.68385L22.9687 0.692322L8.76555 14.7862L1.73497 7.77467L0.740742 8.76619L7.77132 15.7777L8.76555 16.7692L9.83079 15.7777L23.963 1.68385Z" fill="black"/>
</symbol><symbol id="flag" viewBox="0 0 47 81">
<path d="M7.76611 3.86183V42.3812L47 23.072L7.76611 3.86183ZM0 80.9005V0H3.83261V80.9005H0Z" fill="#63D1BB"/>
<path d="M3.83262 0.0996094H0V81.0001H3.83262V0.0996094Z" fill="#231F20"/>
</symbol><symbol id="huge-arrow-left" viewBox="0 0 50 26">
<path d="M50 11H7.7L15.8 2.8L13 0L0 13L13 26L15.8 23.2L7.7 15H50V11Z" fill="black"/>
</symbol><symbol id="huge-arrow-right" viewBox="0 0 50 26">
<path d="M0 11H42.3L34.2 2.8L37 0L50 13L37 26L34.2 23.2L42.3 15H0V11Z" fill="black"/>
</symbol><symbol id="mail"><path opacity=".2" d="M28 0H4C1.8 0 0 1.8 0 4v13c0 2.2 1.8 4 4 4h24c2.2 0 4-1.8 4-4V4c0-2.2-1.8-4-4-4zM2 5.3l7 5.3-7 5.3V5.3zM30 17c0 1.1-.9 2-2 2H4c-1.1 0-2-.9-2-2l7.8-5.9 4.4 3.3c.5.4 1.2.6 1.8.6.6 0 1.3-.2 1.8-.6l4.4-3.3L30 17zm0-1.2l-7-5.3 7-5.3v10.6zm-12.8-2.2c-.4.3-.8.4-1.2.4-.4 0-.9-.1-1.2-.4l-4.1-3.1-.8-.6L2 4c0-1.1.9-2 2-2h24c1.1 0 2 .9 2 2l-12.8 9.6z" fill="currentColor"/></symbol><symbol id="menu-close" viewBox="0 0 21 20">
<path d="M21 1.36585L19.5659 0L10.5512 8.58537L1.43415 0L0 1.36585L9.01463 10.0488L0 18.6341L1.43415 20L10.5512 11.4146L19.5659 20L21 18.6341L11.9854 10.0488L21 1.36585Z" fill="black"/>
</symbol><symbol id="menu" viewBox="0 0 20 14">
<path d="M20 0H0V2H20V0Z" fill="#231F20"/>
<path d="M20 6H0V8H20V6Z" fill="#231F20"/>
<path d="M20 12H0V14H20V12Z" fill="#231F20"/>
</symbol><symbol id="phone" viewBox="0 0 25 24">
<path d="M17.4395 24C17.0363 24 16.7339 24 16.3306 24C11.3911 23.4074 7.7621 21.1358 5.14113 18.2717C2.52016 15.4075 0.403226 11.7532 0 6.7162C0 6.22237 0 5.82731 0 5.33349C0.100806 4.44461 0.504032 3.85202 1.10887 3.25943C1.71371 2.56808 2.72177 1.77796 3.62903 1.6792C4.33468 1.6792 5.44355 2.17302 5.84677 2.76561C6.25 3.25943 6.45161 4.34584 6.65323 5.13596C6.85484 6.02484 7.25806 7.11125 7.15726 7.90137C6.95565 9.08655 5.34274 9.58037 4.93952 10.4693C6.55242 14.1235 9.07258 16.889 12.5 18.6667C13.3065 18.1729 14.1129 16.7902 15.3226 16.7902C15.7258 16.7902 16.3306 16.9877 16.7339 17.0865C17.2379 17.1852 17.6411 17.3828 18.0444 17.5803C18.75 17.8766 20.0605 18.1729 20.4637 18.7655C20.8669 19.3581 21.1694 20.3457 21.0685 20.9383C20.7661 22.2222 18.6492 23.6049 17.4395 24Z" fill="black"/>
<path d="M12.6008 1.48147C18.5484 1.48147 23.4879 6.22217 23.4879 12.1481H25C25 5.43205 19.4556 0 12.6008 0V1.48147Z" fill="currentColor"/>
<path d="M12.6008 9.18506V10.7653C13.4073 10.7653 14.0121 11.3579 14.0121 12.148H15.625C15.625 10.5678 14.3145 9.18506 12.6008 9.18506Z" fill="currentColor"/>
<path d="M12.6008 6.12356C15.9274 6.12356 18.75 8.79021 18.75 12.1482H20.3629C20.3629 8.00009 16.9355 4.64209 12.7016 4.64209V6.12356H12.6008Z" fill="currentColor"/>
</symbol><symbol id="play" viewBox="0 0 101 77">
<path d="M97.2706 18.1C97.2706 18.1 96.3698 11.1 93.467 7.99997C89.8636 3.99997 85.7597 3.89995 83.958 3.69995C70.6453 2.69995 50.6262 2.69995 50.6262 2.69995H50.5261C50.5261 2.69995 30.507 2.69995 17.1944 3.69995C15.2925 3.89995 11.2887 3.99997 7.68531 7.99997C4.88264 11.1 3.88169 18.1 3.88169 18.1C3.88169 18.1 2.98083 26.3 2.98083 34.5V42.2C2.98083 50.4 3.88169 58.6 3.88169 58.6C3.88169 58.6 4.78255 65.6 7.68531 68.7C11.2887 72.7 16.0933 72.6 18.1953 73C25.8026 73.8 50.6262 74 50.6262 74C50.6262 74 70.6453 74 83.958 73C85.8598 72.8 89.8636 72.7 93.467 68.7C96.2697 65.6 97.2706 58.6 97.2706 58.6C97.2706 58.6 98.1715 50.4 98.1715 42.2V34.5C98.1715 26.3 97.2706 18.1 97.2706 18.1Z" fill="#63D1BB"/>
<path d="M50.5262 76.8C49.5252 76.8 25.5023 76.5 17.8951 75.8H17.795H17.6949C17.3946 75.7 16.9943 75.7 16.5939 75.6C14.0915 75.3 9.387 74.7 5.78356 70.6C2.38032 67 1.37937 59.8 1.27927 59C1.27927 58.7 0.27832 50.5 0.27832 42.3V34.6C0.27832 26.3 1.17919 18.2 1.17919 17.9V17.8C1.27928 17 2.38033 9.89998 5.68348 6.19998C9.68729 1.79998 14.1916 1.30001 16.3937 1.10001C16.5939 1.10001 16.7941 1.1 16.8942 1H16.9943C30.3069 0 50.326 0 50.5262 0H50.6263C50.8265 0 70.8456 0 84.1582 1H84.2583C84.4585 1 84.5586 1.00001 84.7588 1.10001C86.9609 1.30001 91.4652 1.79998 95.469 6.19998C98.8722 9.79998 99.8732 17 99.9733 17.8C99.9733 18.1 100.974 26.3 100.974 34.6V42.3C100.974 50.6 100.073 58.7 99.9733 59V59.1C99.8732 59.9 98.7721 67.1 95.469 70.7C91.4652 75.1 86.9609 75.6 84.7588 75.8C84.5586 75.8 84.3584 75.8 84.2583 75.9H84.1582C70.8456 76.8 50.7264 76.8 50.5262 76.8ZM18.5958 70.4C26.1029 71.1 49.8255 71.4 50.6263 71.4C51.327 71.4 70.7455 71.4 83.6578 70.4C83.8579 70.4 84.0581 70.4 84.2583 70.3C86.06 70.1 88.8627 69.8 91.4652 67C93.2669 65 94.3679 60.1 94.5681 58.4C94.6682 57.9 95.469 50 95.469 42.3V34.6C95.469 26.8 94.5681 19 94.468 18.5C94.1677 16.1 93.0667 11.7 91.3651 10C88.7626 7.1 85.9599 6.89998 84.1582 6.69998C83.958 6.69998 83.7578 6.70001 83.5576 6.60001C70.4452 5.60001 50.7264 5.60001 50.5262 5.60001H50.4261C50.2259 5.60001 30.407 5.60001 17.3946 6.60001C17.1944 6.60001 16.9942 6.59998 16.7941 6.69998C14.9923 6.89998 12.1897 7.2 9.5872 10C7.78549 12 6.68443 16.9 6.48424 18.6C6.38415 19.2 5.58338 27 5.58338 34.7V42.4C5.58338 50.1 6.48424 58 6.48424 58.5C6.78453 60.9 7.88558 65.3 9.5872 67C11.8894 69.6 14.8923 70 17.0944 70.3C17.6949 70.2 18.0953 70.3 18.5958 70.4Z" fill="white"/>
<path d="M38.6146 20.5V56.2L68.443 38.4L38.6146 20.5Z" fill="white"/>
</symbol><symbol id="search"><path opacity=".2" d="M17.7 16.06l-3.48-3.48a7.63 7.63 0 001.53-4.7c0-4.4-3.48-7.88-7.88-7.88A7.81 7.81 0 000 7.88c0 4.4 3.48 7.87 7.88 7.87 1.73 0 3.37-.61 4.7-1.53l3.48 3.47c.2.2.4.31.82.31.6 0 1.12-.51 1.12-1.13 0-.2-.1-.5-.3-.81zM2.24 7.88a5.67 5.67 0 015.63-5.63 5.67 5.67 0 015.62 5.63 5.67 5.67 0 01-5.63 5.62 5.67 5.67 0 01-5.62-5.63z" fill="#000"/></symbol><symbol id="video" viewBox="0 0 32 22">
<path d="M26 10L32 6V22L26 18V10ZM24 10V18C24 20.2 22.2 22 20 22H4C1.8 22 0 20.2 0 18V10C0 7.8 1.8 6 4 6H14C14 4.9 14.9 4 16 4V2H5C4.4 2 4 1.6 4 1C4 0.4 4.4 0 5 0H17C17.6 0 18 0.4 18 1V4C19.1 4 20 4.9 20 6C22.2 6 24 7.8 24 10ZM12 10H4V18H12V10ZM20 11C20 10.4 19.6 10 19 10H15C14.4 10 14 10.4 14 11C14 11.6 14.4 12 15 12H19C19.6 12 20 11.6 20 11Z" fill="#63D1BB"/>
</symbol><symbol id="zigzag-fill-desktop" viewBox="0 0 768 24">
<path d="M750.784 0C741.142 0 741.142 9.88235 731.567 9.88235C721.992 9.88235 721.925 0 712.35 0C702.776 0 702.709 9.88235 693.134 9.88235C683.492 9.88235 683.492 0 673.85 0C664.209 0 664.209 9.88235 654.634 9.88235C644.992 9.88235 644.992 0 635.417 0C625.776 0 625.776 9.88235 616.201 9.88235C606.626 9.88235 606.358 0 596.783 0C587.142 0 587.142 9.88235 577.567 9.88235C567.992 9.88235 567.858 0 558.283 0C548.642 0 548.642 9.88235 539.067 9.88235C529.425 9.88235 529.425 0 519.783 0C510.142 0 510.142 9.88235 500.567 9.88235C490.925 9.88235 490.925 0 481.35 0C471.776 0 471.642 9.88235 462 9.88235C452.358 9.88235 452.358 0 442.783 0C433.142 0 433.142 9.88235 423.567 9.88235C413.925 9.88235 413.925 0 404.283 0C394.642 0 394.642 9.88235 385.067 9.88235C375.425 9.88235 375.425 0 365.85 0C356.209 0 356.209 9.88235 346.634 9.88235C336.992 9.88235 336.992 0 327.417 0C317.776 0 317.776 9.88235 308.134 9.88235C298.492 9.88235 298.492 0 288.85 0C279.209 0 279.209 9.88235 269.567 9.88235C259.925 9.88235 259.925 0 250.283 0C240.642 0 240.642 9.88235 231 9.88235C221.358 9.88235 221.358 0 211.717 0C202.075 0 202.075 9.88235 192.433 9.88235C182.791 9.88235 182.791 0 173.15 0C163.508 0 163.508 9.88235 153.933 9.88235C144.291 9.88235 144.291 0 134.65 0C125.008 0 125.008 9.88235 115.366 9.88235C105.724 9.88235 105.724 0 96.0826 0C86.4409 0 86.4409 9.88235 76.7991 9.88235C67.1574 9.88235 67.1574 0 57.5157 0C48.1417 0 48.1417 9.88235 38.5 9.88235C28.8583 9.88235 28.8583 0 19.2835 0C9.70869 0 9.64174 9.88235 0 9.88235V24H770V9.88235C760.358 9.88235 760.358 0 750.784 0Z" fill="white"/>
</symbol><symbol id="zigzag-line-desktop" viewBox="0 0 320 6">
<path d="M320 6C317.496 6 316.188 4.8 315.13 3.83478C314.184 2.97391 313.489 2.34783 312.014 2.34783C310.511 2.34783 309.843 2.97391 308.897 3.83478C307.84 4.8 306.532 6 304.028 6C301.523 6 300.216 4.8 299.158 3.83478C298.212 2.97391 297.517 2.34783 296.042 2.34783C294.567 2.34783 293.871 2.97391 292.925 3.83478C291.868 4.8 290.56 6 288.056 6C285.551 6 284.243 4.8 283.186 3.83478C282.24 2.97391 281.544 2.34783 280.07 2.34783C278.567 2.34783 277.899 2.97391 276.953 3.83478C275.896 4.8 274.588 6 272.083 6C269.579 6 268.271 4.8 267.214 3.83478C266.268 2.97391 265.572 2.34783 264.097 2.34783C262.595 2.34783 261.927 2.97391 260.981 3.83478C259.812 4.8 258.504 6 256 6C253.496 6 252.188 4.8 251.13 3.83478C250.184 2.97391 249.489 2.34783 248.014 2.34783C246.511 2.34783 245.843 2.97391 244.897 3.83478C243.84 4.8 242.532 6 240.028 6C237.523 6 236.216 4.8 235.158 3.83478C234.212 2.97391 233.517 2.34783 232.042 2.34783C230.539 2.34783 229.871 2.97391 228.925 3.83478C227.812 4.8 226.504 6 224 6C221.496 6 220.188 4.8 219.13 3.83478C218.184 2.97391 217.489 2.34783 216.014 2.34783C214.511 2.34783 213.843 2.97391 212.897 3.83478C211.84 4.8 210.532 6 208.028 6C205.523 6 204.216 4.8 203.158 3.83478C202.212 2.97391 201.517 2.34783 200.042 2.34783C198.567 2.34783 197.871 2.97391 196.925 3.83478C195.84 4.8 194.504 6 192 6C189.496 6 188.188 4.8 187.13 3.83478C186.184 2.97391 185.489 2.34783 184.014 2.34783C182.511 2.34783 181.843 2.97391 180.897 3.83478C179.84 4.8 178.532 6 176.028 6C173.523 6 172.216 4.8 171.158 3.83478C170.212 2.97391 169.517 2.34783 168.042 2.34783C166.539 2.34783 165.871 2.97391 164.925 3.83478C163.868 4.8 162.56 6 160.056 6C157.551 6 156.243 4.8 155.186 3.83478C154.24 2.97391 153.544 2.34783 152.07 2.34783C150.595 2.34783 149.899 2.97391 148.953 3.83478C147.896 4.8 146.588 6 144.083 6C141.579 6 140.271 4.8 139.214 3.83478C138.268 2.97391 137.572 2.34783 136.097 2.34783C134.595 2.34783 133.927 2.97391 132.981 3.83478C131.923 4.8 130.616 6 128.111 6C125.607 6 124.299 4.8 123.242 3.83478C122.296 2.97391 121.6 2.34783 120.125 2.34783C118.623 2.34783 117.955 2.97391 117.009 3.83478C115.951 4.8 114.643 6 112.139 6C109.635 6 108.327 4.8 107.27 3.83478C106.323 2.97391 105.628 2.34783 104.153 2.34783C102.65 2.34783 101.983 2.97391 101.037 3.83478C99.9791 4.8 98.6713 6 96.167 6C93.6626 6 92.3548 4.8 91.2974 3.83478C90.3513 2.97391 89.6556 2.34783 88.1809 2.34783C86.7061 2.34783 86.0104 2.97391 85.0643 3.83478C84.007 4.8 82.6991 6 80.1948 6C77.6904 6 76.3826 4.8 75.3252 3.83478C74.3791 2.97391 73.6835 2.34783 72.2087 2.34783C70.7061 2.34783 70.0383 2.97391 69.0922 3.83478C68.0348 4.8 66.727 6 64.2226 6C61.7183 6 60.4104 4.8 59.353 3.83478C58.407 2.97391 57.7113 2.34783 56.2365 2.34783C54.7339 2.34783 54.0661 2.97391 53.12 3.83478C52.0626 4.8 50.7548 6 48.2504 6C45.7461 6 44.4383 4.8 43.3809 3.83478C42.4348 2.97391 41.7391 2.34783 40.2643 2.34783C38.7617 2.34783 38.0939 2.97391 37.1478 3.83478C35.84 4.8 34.5043 6 32 6C29.4957 6 28.1878 4.8 27.1304 3.83478C26.1843 2.97391 25.4887 2.34783 24.0139 2.34783C22.5113 2.34783 21.8435 2.97391 20.8974 3.83478C19.84 4.8 18.5322 6 16.0278 6C13.5235 6 12.2157 4.8 11.1583 3.83478C10.1843 2.97391 9.4887 2.34783 8.01391 2.34783C6.5113 2.34783 5.84348 2.97391 4.89739 3.83478C3.81217 4.8 2.50435 6 0 6V3.65217C1.50261 3.65217 2.17043 3.02609 3.11652 2.16522C4.17391 1.2 5.48174 0 8.01391 0C10.5183 0 11.8261 1.2 12.8835 2.16522C13.8296 3.02609 14.5252 3.65217 16 3.65217C17.5026 3.65217 18.1704 3.02609 19.1165 2.16522C20.1739 1.2 21.5096 0 24.0139 0C26.5183 0 27.8261 1.2 28.8835 2.16522C29.8296 3.02609 30.5252 3.65217 32 3.65217C33.5026 3.65217 34.1704 3.02609 35.1165 2.16522C36.1739 1.2 37.4817 0 39.9861 0C42.4904 0 43.7983 1.2 44.8556 2.16522C45.8017 3.02609 46.4974 3.65217 47.9722 3.65217C49.4748 3.65217 50.1426 3.02609 51.0887 2.16522C52.1461 1.2 53.4539 0 55.9583 0C58.4626 0 59.7704 1.2 60.8278 2.16522C61.7739 3.02609 62.4696 3.65217 63.9443 3.65217C65.447 3.65217 66.1148 3.02609 67.0609 2.16522C68.1183 1.2 69.4261 0 71.9304 0C74.4348 0 75.7426 1.2 76.8 2.16522C77.7461 3.02609 78.4417 3.65217 79.9165 3.65217C81.4191 3.65217 82.087 3.02609 83.033 2.16522C84.0904 1.2 85.3983 0 87.9026 0C90.407 0 91.7148 1.2 92.7722 2.16522C93.7183 3.02609 94.4139 3.65217 95.8887 3.65217C97.3913 3.65217 98.0591 3.02609 99.0052 2.16522C100.063 1.2 101.37 0 103.875 0C106.379 0 107.687 1.2 108.744 2.16522C109.69 3.02609 110.386 3.65217 111.861 3.65217C113.336 3.65217 114.031 3.02609 114.977 2.16522C116.035 1.2 117.343 0 119.847 0C122.351 0 123.659 1.2 124.717 2.16522C125.663 3.02609 126.358 3.65217 127.833 3.65217C129.336 3.65217 130.003 3.02609 130.95 2.16522C132.007 1.2 133.315 0 135.819 0C138.323 0 139.631 1.2 140.689 2.16522C141.635 3.02609 142.33 3.65217 143.805 3.65217C145.308 3.65217 145.976 3.02609 146.922 2.16522C147.979 1.2 149.287 0 151.791 0C154.296 0 155.603 1.2 156.661 2.16522C157.607 3.02609 158.303 3.65217 159.777 3.65217C161.28 3.65217 161.948 3.02609 162.894 2.16522C163.951 1.2 165.259 0 167.763 0C170.268 0 171.576 1.2 172.633 2.16522C173.579 3.02609 174.275 3.65217 175.75 3.65217C177.252 3.65217 177.92 3.02609 178.866 2.16522C179.923 1.2 181.231 0 183.736 0C186.24 0 187.548 1.2 188.605 2.16522C189.551 3.02609 190.247 3.65217 191.722 3.65217C193.224 3.65217 193.892 3.02609 194.838 2.16522C195.896 1.2 197.203 0 199.708 0C202.212 0 203.52 1.2 204.577 2.16522C205.523 3.02609 206.219 3.65217 207.694 3.65217C209.197 3.65217 209.864 3.02609 210.81 2.16522C211.868 1.2 213.176 0 215.68 0C218.184 0 219.492 1.2 220.55 2.16522C221.496 3.02609 222.191 3.65217 223.666 3.65217C225.169 3.65217 225.837 3.02609 226.783 2.16522C228.174 1.2 229.482 0 232.014 0C234.518 0 235.826 1.2 236.883 2.16522C237.83 3.02609 238.525 3.65217 240 3.65217C241.475 3.65217 242.17 3.02609 243.117 2.16522C244.174 1.2 245.482 0 247.986 0C250.49 0 251.798 1.2 252.856 2.16522C253.802 3.02609 254.497 3.65217 255.972 3.65217C257.447 3.65217 258.143 3.02609 259.089 2.16522C260.174 1.2 261.482 0 264.014 0C266.546 0 267.826 1.2 268.883 2.16522C269.83 3.02609 270.525 3.65217 272 3.65217C273.475 3.65217 274.17 3.02609 275.117 2.16522C276.174 1.2 277.482 0 279.986 0C282.49 0 283.798 1.2 284.856 2.16522C285.802 3.02609 286.497 3.65217 287.972 3.65217C289.475 3.65217 290.143 3.02609 291.089 2.16522C292.146 1.2 293.454 0 295.958 0C298.463 0 299.77 1.2 300.828 2.16522C301.774 3.02609 302.47 3.65217 303.944 3.65217C305.419 3.65217 306.115 3.02609 307.061 2.16522C308.118 1.2 309.426 0 311.93 0C314.435 0 315.743 1.2 316.8 2.16522C317.746 3.02609 318.442 3.65217 319.917 3.65217V6H320Z" fill="#F1F1F1"/>
</symbol></svg>